# xmcd
#
# Track frame offsets: 
#        150
#        23705
#        39190
#        54588
#        77017
#        94554
#        98487
#        144283
#        156560
#        163014
#        179788
#
# Disc length: 2723 seconds
#
# Revision: 0
# Processed by: cddbd v1.5.2PL0 Copyright (c) Steve Scherf et al.
# Submitted via: ExactAudioCopy v0.95b4
#
DISCID=810aa10b
DTITLE=Ian Ball - Who Goes There
DYEAR=2007
DGENRE=Rock
TTITLE0=Sweet Sweet Sleep
TTITLE1=Automatic Message
TTITLE2=Failure
TTITLE3=Your Move
TTITLE4=The Elephant Pharmacy
TTITLE5=Free Tickets To The Moon
TTITLE6=Who Goes There
TTITLE7=When We Were Cool
TTITLE8=Batteries
TTITLE9=I Knew You Were Trouble
TTITLE10=Enzymes
EXTD=
EXTT0=
EXTT1=
EXTT2=
EXTT3=
EXTT4=
EXTT5=
EXTT6=
EXTT7=
EXTT8=
EXTT9=
EXTT10=
PLAYORDER=
